#!OML:ASF F:\VICON\USERDATA\INSTALL\rory3\rory3.ASF
:FULLY-SPECIFIED
:DEGREES
68
root 0.46035898857296564 18.051546460479166 14.847408098333906 10.284292086837171 -0.39826436671273574 -2.1081647705333895
lfemur -16.212211179897743 7.333648994046337 -17.088647918584382
ltibia 18.121115042395438
lfoot -8.255558370983495 4.147985860083865
ltoes -6.50796078782078
rfemur -16.15008972359592 -2.613086043267195 20.83717297776803
rtibia 19.582036513867525
rfoot -12.082636449457636 2.2056738647283307
rtoes 14.05302113285516
lowerback -1.4964845369506552 0.7614826053038896 -0.49830608445689434
upperback 1.6328296383760923 0.9056153210186899 1.185879844529791
thorax 2.9115937003982335 0.4672007941681535 1.4802344923559008
lowerneck -10.86614769718973 -0.9692965447764044 -2.0846929542009605
upperneck 30.32497886543529 -1.7485872167442653 2.9119727485802684
head 11.84078863432783 -0.6000165434562283 1.1192298624259074
lclavicle 1.009419226244819e-15 -1.4437981243601402e-15
lhumerus -30.108301559080903 -0.775525453850642 85.62698821383314
lradius 20.358556583300377
lwrist 9.375890969936846
lhand -24.806858468750296 -7.2268082784426415
lfingers 7.125019999999998
lthumb 1.698099268763492 22.7505347690611
rclavicle 1.009419226244819e-15 -1.4437981243601402e-15
rhumerus -24.7444872142192 -17.561169027019588 -79.10400819067495
rradius 24.539673102163945
rwrist 39.30532089573258
rhand -19.089244897764004 -27.408437065382
rfingers 7.125019999999998
rthumb 7.219373491739483 -57.25417220433962
69
root 0.4599153704090597 18.04929764333083 15.285901945666877 10.326162979385748 -0.4813224878111156 -2.104681349409799
lfemur -14.78687755760561 7.4506596338044755 -16.974832879092393
ltibia 17.409056811660168
lfoot -8.28661532847772 4.569136692488132
ltoes -6.295920329425802
rfemur -14.890942723703162 -2.4733246203536545 20.82698528004649
rtibia 18.953414669947907
rfoot -12.18881367092434 2.46784108223651
rtoes 14.11297057666234
lowerback -1.8320855854797409 0.7521133224562934 -0.4310500137591482
upperback 1.4712647509754249 0.8940568190144929 1.1694666079977818
thorax 3.25547154078691 0.4622274142772599 1.4513808019493246
lowerneck -10.823737457345654 -0.9086062217566276 -2.1053891336690893
upperneck 30.73853704462322 -1.6443876063482787 2.9112440954652095
head 11.999304834753598 -0.5659043221824233 1.1335714323377233
lclavicle 1.1913694748356505e-15 -1.2438627820424904e-15
lhumerus -28.939966035283803 -0.7038091637682491 86.25771792103102
lradius 20.612376996456405
lwrist 9.072866455102659
lhand -24.510612340158136 -6.721042777215658
lfingers 7.125019999999998
lthumb 1.9841845265603175 23.254736572313277
rclavicle 1.1913694748356505e-15 -1.2438627820424904e-15
rhumerus -24.399718630575922 -16.58034890086908 -79.48884064102742
rradius 24.47987365765247
rwrist 39.19352915855987
rhand -18.743934925622543 -27.34953605322114
rfingers 7.125019999999998
rthumb 7.552579023050235 -57.188044505319816
70
root 0.46081156254967814 18.02451348732163 15.37080347881224 10.288620826511309 -0.5652055890470729 -2.0522197378148266
lfemur -13.805877417148212 7.545733508346698 -16.983618466818196
ltibia 16.35555122515574
lfoot -8.477046027209163 4.712650785888981
ltoes -6.147447500389852
rfemur -14.069437588668057 -2.3997251344551316 20.673755129005688
rtibia 18.049099080929548
rfoot -12.436081270897605 2.491472007458163
rtoes 14.05559172182311
lowerback -2.2928717015185347 0.7120767934697488 -0.3856457602913602
upperback 1.342254897817345 0.8490157521721101 1.1412214803737795
thorax 3.552847248801327 0.4378533032673537 1.4031875376056315
lowerneck -10.851249422485786 -0.8663348809363127 -2.128118842344477
upperneck 30.863800266241817 -1.5603174803857065 2.868206611014074
head 12.05904804910764 -0.5411842549947077 1.1365634816059205
lclavicle 1.1808468313253934e-15 -1.2552919904829331e-15
lhumerus -28.24935672720896 -1.0817681099478116 86.80098113250267
lradius 20.66849645613538
lwrist 8.33595928379029
lhand -24.208774200615682 -6.054869485569655
lfingers 7.125019999999998
lthumb 2.275666341830092 23.91773861014704
rclavicle 1.1808468313253934e-15 -1.2552919904829331e-15
rhumerus -24.2133338927161 -15.885645138934933 -79.98619597765398
rradius 24.282200130618136
rwrist 38.96146203194147
rhand -18.446741883448023 -27.319722994114127
rfingers 7.125019999999998
rthumb 7.839347901999914 -57.15144435716867
71
root 0.4621217452560765 18.013584268311767 15.280487559297418 10.259724507113452 -0.6252467602758528 -1.9703270194859432
lfemur -13.036644146250838 7.65851135045002 -17.043993634460975
ltibia 15.598347251054575
lfoot -8.586745171016139 4.670370974387924
ltoes -6.121020814389668
rfemur -13.388204512399541 -2.3406720976555535 20.50396227576916
rtibia 17.390196296368067
rfoot -12.550649169766269 2.3304446198886133
rtoes 13.995662957447646
lowerback -2.663348924547118 0.6532616445369446 -0.34992800947589575
upperback 1.3116206602225187 0.7781033079094525 1.1162270637542644
thorax 3.8532147627964104 0.40034845737735436 1.3643202873423876
lowerneck -10.88328278494091 -0.8107522405547328 -2.1401028815042973
upperneck 30.907286486300947 -1.4471958093259922 2.7909595646982854
head 12.092309157700269 -0.507928109316104 1.131466907748399
lclavicle 1.1732110332055738e-15 -1.2634784051205532e-15
lhumerus -27.790695004423355 -1.6491764003955498 87.29661252558411
lradius 20.79254983300151
lwrist 7.723702173202142
lhand -23.937724102541594 -5.306508501560267
lfingers 7.125019999999998
lthumb 2.5374187333671037 24.662195043871503
rclavicle 1.1732110332055738e-15 -1.2634784051205532e-15
rhumerus -24.16734621719587 -15.171419670931346 -80.38496940725575
rradius 24.264909646534136
rwrist 38.688281931797356
rhand -18.18308058643616 -27.259864841639285
rfingers 7.125019999999998
rthumb 8.093743237115111 -57.08381629734265
72
root 0.46284708866629 18.047282097379654 15.242249162074275 10.224672639210722 -0.6615400395449867 -1.8820007332109112
lfemur -12.20027976379777 7.821239320320629 -17.06993535907659
ltibia 15.459303404454324
lfoot -8.39953187928347 4.592188239739146
ltoes -6.106909952724043
rfemur -12.598828317040951 -2.2603036384215294 20.39598172581905
rtibia 17.330470981056393
rfoot -12.323184009882949 2.167133792694192
rtoes 14.140909687335494
lowerback -2.8505371491158664 0.581859900309344 -0.32244394082202665
upperback 1.3905218910782042 0.6837968009984161 1.1024040985043135
thorax 4.195859988376437 0.35242120265632404 1.3531038518976444
lowerneck -10.843621008547672 -0.7199131732468941 -2.1253523837914092
upperneck 31.108481549323898 -1.278473097012642 2.6924997494110254
head 12.175702851880754 -0.4549545503628657 1.1207291466564195
lclavicle 1.298685085884842e-15 -1.1254558855760814e-15
lhumerus -27.192424174724202 -2.005534798734859 87.74428265702895
lradius 21.060344647630988
lwrist 7.385825169608388
lhand -23.655877970194766 -4.615918330137813
lfingers 7.125019999999998
lthumb 2.8095930370276956 25.34850623694674
rclavicle 1.298685085884842e-15 -1.1254558855760814e-15
rhumerus -24.151787707460965 -14.366943014895874 -80.5950704541133
rradius 24.518444563741348
rwrist 38.49187244525147
rhand -17.947665556326914 -27.164586496221265
rfingers 7.125019999999998
rthumb 8.320861659889264 -56.97985064180304
